<svg xmlns="http://www.w3.org/2000/svg" width="39.15" height="34.8" viewBox="0 0 39.15 34.8">
  <path id="Icon_metro-images" data-name="Icon metro-images" d="M39.547,9.493H37.372V7.318A2.181,2.181,0,0,0,35.2,5.143H4.746A2.181,2.181,0,0,0,2.571,7.318v26.1a2.181,2.181,0,0,0,2.175,2.175H6.921v2.175A2.181,2.181,0,0,0,9.1,39.943h30.45a2.181,2.181,0,0,0,2.175-2.175v-26.1a2.181,2.181,0,0,0-2.175-2.175ZM6.921,11.668v21.75H4.75l0,0V7.322l0,0H35.193l0,0V9.493H9.1A2.181,2.181,0,0,0,6.921,11.668Zm32.625,26.1,0,0H9.1l0,0V11.672l0,0H39.543l0,0ZM35.2,17.105a3.263,3.263,0,1,1-3.263-3.263A3.263,3.263,0,0,1,35.2,17.105Zm2.175,18.488h-26.1v-4.35l7.613-13.05,8.7,10.875h2.175l7.613-6.525Z" transform="translate(-2.571 -5.143)" fill="#8a93af"/>
</svg>
