<svg xmlns="http://www.w3.org/2000/svg" width="47.059" height="38.732" viewBox="0 0 47.059 38.732">
  <path id="Path_15" data-name="Path 15" d="M115.15,7.756a19.423,19.423,0,0,1-4.758,1.357c.765-.128,1.889-1.514,2.34-2.073a8.772,8.772,0,0,0,1.578-2.883c.042-.082.072-.185-.01-.248a.279.279,0,0,0-.253.021,24.265,24.265,0,0,1-5.641,2.159.377.377,0,0,1-.39-.1,4.39,4.39,0,0,0-.493-.5,9.972,9.972,0,0,0-2.734-1.679,9.5,9.5,0,0,0-4.192-.672,10.028,10.028,0,0,0-3.975,1.121,10.249,10.249,0,0,0-3.208,2.622A9.776,9.776,0,0,0,91.5,10.716a10.331,10.331,0,0,0-.1,4.052c.029.227.01.255-.194.227C83.45,13.84,77.026,11.066,71.811,5.126c-.227-.261-.348-.261-.535.017-2.283,3.423-1.175,8.916,1.677,11.618.381.36.769.722,1.19,1.047A9.855,9.855,0,0,1,70.4,16.761c-.227-.143-.339-.059-.36.2a5.839,5.839,0,0,0,.061,1.11,9.94,9.94,0,0,0,6.127,7.924,5.657,5.657,0,0,0,1.243.381,11.084,11.084,0,0,1-3.669.116c-.268-.053-.371.08-.268.337,1.616,4.4,5.1,5.712,7.711,6.456.35.061.7.061,1.049.145-.021.03-.042.03-.061.061-.866,1.319-3.867,2.3-5.266,2.791a18.848,18.848,0,0,1-8,1.022c-.43-.063-.52-.057-.636,0-.118.072-.015.177.124.287.545.36,1.1.678,1.664.988a26.368,26.368,0,0,0,5.346,2.138c9.607,2.652,20.427.7,27.641-6.462,5.664-5.63,7.648-13.39,7.648-21.162,0-.3.362-.472.573-.632a18.71,18.71,0,0,0,3.762-3.913,1.184,1.184,0,0,0,.249-.748V7.756c0-.124,0-.086-.194,0" transform="translate(-68.285 -3.114)" fill="#121f55"/>
</svg>
