<svg xmlns="http://www.w3.org/2000/svg" width="22.077" height="24.202" viewBox="0 0 22.077 24.202">
  <path id="Path_278" data-name="Path 278" d="M22.07,11.416c-.1,1.395-.313,2.776-.527,4.157-.365,2.37-.721,4.741-1.227,7.087a1.527,1.527,0,0,1-.956,1.169,3.861,3.861,0,0,1-1.58.359c-1.93-.012-3.863-.053-5.792.007a16.19,16.19,0,0,1-7.345-1.639,4.816,4.816,0,0,0-2.337-.5c-.573.033-1.151-.019-1.723.015-.437.025-.59-.1-.583-.563.026-1.827.011-3.655.011-5.483S.023,12.34,0,10.5c0-.416.134-.546.533-.519.426.028.858-.03,1.281.012a7.537,7.537,0,0,0,5.06-1.736A6.555,6.555,0,0,0,9.568,4.091a22,22,0,0,1,.782-2.806c.2-.52.282-1.176,1-1.267a2.114,2.114,0,0,1,1.917.8,3.008,3.008,0,0,1,.662,1.748,17.332,17.332,0,0,1-.572,6.12c-.239.916.053,1.3,1.008,1.3q3.161,0,6.322,0c1,0,1.449.432,1.381,1.431" transform="translate(22.077 24.202) rotate(180)" fill="#d22424"/>
</svg>
