<svg xmlns="http://www.w3.org/2000/svg" width="36.354" height="39.854" viewBox="0 0 36.354 39.854">
  <path id="Path_4" data-name="Path 4" d="M36.343,18.8c-.158,2.3-.516,4.572-.868,6.845-.6,3.9-1.187,7.807-2.02,11.67A2.514,2.514,0,0,1,31.88,39.24a6.358,6.358,0,0,1-2.6.592c-3.178-.02-6.361-.088-9.537.011a26.66,26.66,0,0,1-12.095-2.7A7.931,7.931,0,0,0,3.8,36.317c-.944.054-1.9-.031-2.838.025-.72.041-.971-.165-.96-.926.043-3.009.018-6.018.018-9.029,0-3.032.019-6.067-.016-9.1-.008-.685.22-.9.878-.855.7.047,1.413-.049,2.11.02,3.221.319,5.822-1.145,8.332-2.859a10.794,10.794,0,0,0,4.434-6.855,36.219,36.219,0,0,1,1.288-4.621c.321-.856.465-1.937,1.649-2.086A3.481,3.481,0,0,1,21.85,1.341a4.953,4.953,0,0,1,1.09,2.879A28.541,28.541,0,0,1,22,14.3c-.393,1.508.088,2.141,1.66,2.141q5.206.006,10.411,0c1.652,0,2.386.712,2.273,2.357" transform="translate(0 0)" fill="#fff"/>
</svg>
